<svg width="65" height="58" viewBox="0 0 65 58" fill="none" xmlns="http://www.w3.org/2000/svg">
<path fill-rule="evenodd" clip-rule="evenodd" d="M32.5013 20.8818C28.4099 20.8155 24.5054 20.9973 20.9259 21.295C16.4959 21.6633 12.5713 22.2531 9.41726 23.0667C6.46439 23.8283 4.18471 24.7847 2.75722 25.8606C1.48935 26.8162 0.882512 27.9219 0.830018 29.04C0.775608 30.1889 1.37118 31.3394 2.57799 32.4385C3.93823 33.6772 6.19392 34.8596 9.1567 35.893C11.7393 36.7938 14.861 37.6174 18.3983 38.1829C22.622 38.8581 27.4251 39.1421 32.5013 39.1787C37.5783 39.1527 42.3764 38.8369 46.6083 38.2119C47.911 38.0194 49.161 37.803 50.3455 37.5426C52.3875 37.0939 54.2348 36.5494 55.8695 35.9727C58.8407 34.9244 61.1022 33.7348 62.4664 32.4895C63.69 31.3729 64.2941 30.2059 64.2392 29.04C64.1865 27.9047 63.5785 26.7747 62.2887 25.8077C60.8538 24.7318 58.5588 23.7948 55.5939 23.0382C51.8967 22.0948 47.146 21.437 41.764 21.1165C38.8369 20.9423 35.7274 20.8316 32.5013 20.8818ZM32.5013 20.9068C35.9656 20.9624 39.2954 21.1445 42.3946 21.5011C45.9943 21.9153 49.2784 22.5321 52.1102 23.281C55.7484 24.2431 58.6045 25.4398 60.3914 26.7231C61.4493 27.4829 62.095 28.2273 62.0564 29.04C62.0291 29.6182 61.5587 30.0844 60.901 30.5758C59.6352 31.5217 57.5824 32.273 54.9656 32.9197C53.3894 33.3092 51.6142 33.6122 49.6778 33.9058C48.5368 34.0788 47.343 34.2494 46.0991 34.4017C42.009 34.9025 37.3919 35.2175 32.5013 35.1925C27.6101 35.2278 22.9961 34.8829 18.8998 34.4307C15.5334 34.059 12.5213 33.6285 10.0135 32.9993C7.388 32.3406 5.3299 31.5781 4.05989 30.627C3.38366 30.1205 2.90806 29.635 2.87989 29.04C2.84103 28.2097 3.49428 27.4435 4.57695 26.6697C6.36976 25.3885 9.2395 24.2069 12.8865 23.2537C15.7208 22.5129 19.0066 21.9019 22.6074 21.4927C25.7071 21.1404 29.0369 20.9594 32.5013 20.9068Z" fill="#A1A6B2"/>
<path fill-rule="evenodd" clip-rule="evenodd" d="M39.53 33.1193C41.6328 29.5907 43.4285 26.1006 44.9618 22.8358C46.8594 18.7951 48.3137 15.0838 49.1898 11.9312C50.01 8.97971 50.3258 6.51693 50.1127 4.7364C49.9234 3.15493 49.2741 2.07386 48.3371 1.46906C47.3745 0.847168 46.0855 0.790436 44.5353 1.29151C42.788 1.85622 40.6415 3.22865 38.2697 5.29125C36.2024 7.089 33.9319 9.39495 31.6761 12.1914C28.9825 15.5308 26.3363 19.5701 23.7667 23.9709C21.2505 28.4035 19.1236 32.7384 17.5462 36.7349C17.0605 37.9654 16.6221 39.1617 16.2541 40.323C15.6198 42.325 15.1651 44.2054 14.8446 45.9168C14.2622 49.0276 14.1563 51.591 14.547 53.4013C14.8973 55.0248 15.6006 56.1342 16.6326 56.6693C17.637 57.191 18.9145 57.2268 20.3925 56.5875C22.0369 55.8762 23.9916 54.347 26.126 52.1442C28.7873 49.3973 31.7294 45.5905 34.6964 41.0654C36.3101 38.6045 37.9602 35.9527 39.53 33.1193ZM39.5085 33.1068C37.7285 36.0948 35.9066 38.9024 34.0498 41.4221C31.893 44.3487 29.7197 46.8993 27.6586 48.99C25.0106 51.6762 22.5516 53.5643 20.5526 54.4781C19.3689 55.0191 18.4048 55.209 17.724 54.7691C17.2394 54.4562 17.073 53.8137 16.9784 52.9954C16.7965 51.4206 17.1756 49.2579 17.9269 46.6564C18.3794 45.0895 19.0061 43.3926 19.7212 41.5602C20.1426 40.4804 20.5927 39.3558 21.0834 38.1967C22.6969 34.3858 24.7341 30.2088 27.2009 25.964C29.6161 21.6883 32.2203 17.8441 34.658 14.5042C36.6614 11.7594 38.5383 9.35238 40.3343 7.48397C42.2145 5.52769 43.9006 4.11722 45.355 3.48717C46.1294 3.15176 46.7855 2.98043 47.3122 3.25345C48.0471 3.63483 48.3804 4.58658 48.5056 5.91598C48.7131 8.1173 48.2962 11.2064 47.294 14.8578C46.515 17.6955 45.3986 20.8615 43.9507 24.2008C42.7043 27.0753 41.1954 30.0646 39.5085 33.1068Z" fill="#A1A6B2"/>
<path fill-rule="evenodd" clip-rule="evenodd" d="M25.4739 33.1193C27.0437 35.9527 28.6939 38.6045 30.3076 41.0654C33.2745 45.5905 36.2166 49.3973 38.878 52.1442C41.0123 54.347 42.967 55.8762 44.6114 56.5875C46.0894 57.2268 47.3669 57.191 48.3713 56.6693C49.4033 56.1342 50.1067 55.0248 50.457 53.4013C50.8477 51.591 50.7418 49.0276 50.1593 45.9168C49.8388 44.2054 49.3843 42.325 48.7498 40.3229C48.3819 39.1617 47.9434 37.9654 47.4577 36.7349C45.8804 32.7384 43.7535 28.4035 41.2372 23.9709C38.6676 19.5701 36.0215 15.5308 33.3278 12.1914C31.072 9.39495 28.8016 7.089 26.7342 5.29125C24.3625 3.22865 22.216 1.85622 20.4687 1.29151C18.9184 0.790436 17.6295 0.847168 16.6668 1.46906C15.7299 2.07386 15.0806 3.15493 14.8912 4.7364C14.6781 6.51693 14.9939 8.97971 15.8141 11.9312C16.6903 15.0838 18.1445 18.7951 20.0422 22.8358C21.5755 26.1006 23.3711 29.5907 25.4739 33.1193ZM25.4954 33.1068C23.8086 30.0646 22.2997 27.0753 21.0532 24.2008C19.6055 20.8615 18.489 17.6955 17.71 14.8578C16.7077 11.2064 16.2909 8.1173 16.4983 5.91598C16.6236 4.58658 16.957 3.63483 17.6917 3.25345C18.2184 2.98043 18.8745 3.15176 19.6491 3.48717C21.1035 4.11722 22.7894 5.52769 24.6697 7.48397C26.4656 9.35238 28.3426 11.7594 30.3459 14.5042C32.7837 17.8441 35.3878 21.6883 37.8031 25.964C40.2698 30.2088 42.3071 34.3858 43.9205 38.1967C44.4114 39.3558 44.8614 40.4804 45.2827 41.5602C45.9979 43.3926 46.6245 45.0895 47.0771 46.6564C47.8285 49.2579 48.2074 51.4206 48.0255 52.9954C47.931 53.8137 47.7645 54.4562 47.28 54.7691C46.5991 55.209 45.6349 55.0191 44.4515 54.4781C42.4523 53.5643 39.9934 51.6762 37.3453 48.99C35.2843 46.8993 33.1108 44.3487 30.9541 41.4221C29.0973 38.9024 27.2755 36.0948 25.4954 33.1068Z" fill="#A1A6B2"/>
</svg>
