<svg width="90" height="88" viewBox="0 0 90 88" fill="none" xmlns="http://www.w3.org/2000/svg">
<path d="M8.64062 75.935V13.7147C8.64062 8.80561 12.4033 4.82605 17.0448 4.82605H63.9886C66.2174 4.82605 68.355 5.76251 69.9312 7.42948L81.8163 19.9998C83.3925 21.6668 84.2779 23.9276 84.2779 26.2851V75.935C84.2779 80.8441 80.5153 84.8236 75.8737 84.8236H17.0448C12.4033 84.8236 8.64062 80.8441 8.64062 75.935Z" stroke="#A1A6B2" stroke-width="3.02549"/>
<path d="M30.3814 27.8064H60.8464C62.3312 27.8064 63.5345 26.8243 63.5345 25.6129V6.48837C63.5345 5.27694 62.3312 5.87158 60.8464 5.87158H30.3814C28.8969 5.87158 27.6934 4.66018 27.6934 5.8716V25.6129C27.6934 26.8243 28.8969 27.8064 30.3814 27.8064Z" stroke="#A1A6B2" stroke-width="3.44075"/>
<path d="M22.2703 56.409V84.3947H69.1654V56.409C69.1654 55.1556 68.1157 54.1398 66.8206 54.1398H24.615C23.32 54.1398 22.2703 55.1556 22.2703 56.409Z" stroke="#A1A6B2" stroke-width="3.44075"/>
</svg>
