<svg width="45" height="45" viewBox="0 0 45 45" fill="none" xmlns="http://www.w3.org/2000/svg">
<path d="M39.4493 44.4153L39.4385 44.4135L39.4276 44.4122C39.0622 44.3676 38.526 44.2144 37.9751 43.7602C37.4247 43.3064 36.8317 42.5289 36.3891 41.1915C35.9534 39.8641 36.1243 38.5819 36.7979 37.6467C37.4718 36.7111 38.634 36.1396 40.0403 36.1396C41.969 36.1396 43.2768 36.8311 43.8768 37.937C44.4568 39.0451 44.3153 40.5136 43.2331 42.0852L43.2331 42.0852L43.2289 42.0913C41.8814 44.1119 40.5556 44.4302 39.7797 44.4302C39.6194 44.4302 39.5315 44.429 39.4493 44.4153ZM33.9563 33.9424C30.3809 37.5165 25.5316 39.5244 20.4752 39.5244C15.4188 39.5244 10.5695 37.5165 6.99412 33.9424C3.41875 30.3683 1.41016 25.5209 1.41016 20.4664C1.41016 15.412 3.41875 10.5645 6.99412 6.99046C10.5695 3.41638 15.4188 1.40845 20.4752 1.40845C25.5316 1.40845 30.3809 3.41638 33.9563 6.99046C37.5317 10.5645 39.5403 15.412 39.5403 20.4664C39.5403 25.5209 37.5317 30.3683 33.9563 33.9424Z" stroke="#515151"/>
</svg>
