<svg width="92" height="92" viewBox="0 0 92 92" fill="none" xmlns="http://www.w3.org/2000/svg">
<path fill-rule="evenodd" clip-rule="evenodd" d="M41.3775 3.70713C41.4194 3.54788 41.5634 3.43689 41.728 3.43689H49.9705C50.1352 3.43689 50.2792 3.54796 50.3211 3.70729L52.9007 13.5274L63.9455 18.0695L71.0958 11.959C71.2397 11.8361 71.4539 11.8445 71.5877 11.9783L80.0228 20.4134C80.1561 20.5467 80.165 20.7599 80.0433 20.9038L73.9637 28.094L78.4394 38.9012L88.291 41.4064C88.4517 41.4473 88.5642 41.592 88.5642 41.7578L88.5638 50.0968C88.5638 50.2618 88.4523 50.406 88.2926 50.4476L78.404 53.0204L73.9267 63.8319L80.043 71.0465C80.165 71.1904 80.1562 71.4038 80.0228 71.5372L71.5877 79.9724C71.4515 80.1086 71.2326 80.1145 71.0893 79.986L71.3313 79.7161L71.0892 79.9859L71.0891 79.9858L71.0883 79.9851L71.0854 79.9825L71.0736 79.9719L71.0274 79.9306L70.8502 79.7721C70.6965 79.635 70.4748 79.4375 70.2029 79.1963C69.6591 78.7139 68.9148 78.0569 68.1124 77.3585C66.5913 76.0344 64.8791 74.5767 63.9229 73.8678L53.0996 78.3501L50.5948 88.2403C50.554 88.4011 50.4093 88.5138 50.2434 88.5138H41.8082C41.6421 88.5138 41.4973 88.401 41.4567 88.2401L38.9582 78.3467L28.3363 73.977L20.9492 79.9971C20.805 80.1146 20.5954 80.1039 20.4639 79.9724L12.0287 71.5372C11.8928 71.4014 11.8866 71.1831 12.0144 71.0397L18.2548 64.0395L13.7112 53.2608L3.75434 50.5426C3.59667 50.4996 3.4873 50.3564 3.4873 50.1929V41.7577C3.4873 41.5893 3.60336 41.443 3.76742 41.4047L13.591 39.1121L17.9981 28.2765L12.0036 20.8983C11.8865 20.7542 11.8973 20.5448 12.0287 20.4134L20.4639 11.9783C20.5996 11.8425 20.8177 11.8361 20.9611 11.9637L27.9787 18.2054L38.7578 13.6616L41.3775 3.70713ZM71.3174 79.2174L79.2741 71.2607L73.2307 64.132C73.1428 64.0284 73.1203 63.8844 73.1723 63.7589L77.8032 52.5764C77.8467 52.4714 77.9369 52.3928 78.0468 52.3642L87.8388 49.8165L87.8392 42.0396L78.0846 39.5591C77.9738 39.5309 77.8828 39.4521 77.839 39.3465L73.2094 28.1673C73.1575 28.042 73.1799 27.8982 73.2675 27.7946L79.2744 20.6903L71.312 12.7279L64.248 18.7646C64.1446 18.853 64.0005 18.8761 63.8747 18.8243L52.458 14.1292C52.3529 14.086 52.2742 13.996 52.2453 13.8861L49.6909 4.16189H42.0075L39.4135 14.0186C39.3849 14.1274 39.3074 14.2167 39.2037 14.2604L28.0495 18.9623C27.9207 19.0166 27.7722 18.992 27.6678 18.8991L20.7347 12.7327L12.7725 20.6949L18.6961 27.9858C18.7795 28.0885 18.8003 28.2285 18.7505 28.351L14.1918 39.559C14.1475 39.668 14.053 39.7487 13.9384 39.7755L4.2123 42.0454V49.9161L14.0722 52.6079C14.1796 52.6372 14.2675 52.7142 14.3108 52.8168L19.0118 63.9689C19.0662 64.0978 19.0415 64.2465 18.9484 64.351L12.7834 71.2666L20.745 79.2283L28.0456 73.2787C28.1487 73.1947 28.2895 73.1738 28.4125 73.2244L39.4029 77.7457C39.5091 77.7894 39.5883 77.8808 39.6164 77.9922L42.0905 87.7888H49.9612L52.4415 77.9957C52.4696 77.8848 52.5484 77.7936 52.6542 77.7498L63.8333 73.1202C63.9489 73.0723 64.0811 73.0874 64.1828 73.1602C65.1316 73.8384 66.9858 75.4166 68.5884 76.8116C69.393 77.512 70.1391 78.1705 70.684 78.6539C70.9475 78.8877 71.164 79.0805 71.3174 79.2174ZM25.7206 45.9754C25.7206 34.7609 34.8112 25.6703 46.0257 25.6703C57.2403 25.6703 66.3309 34.7609 66.3309 45.9754C66.3309 57.1899 57.2403 66.2805 46.0257 66.2805C34.8112 66.2805 25.7206 57.1899 25.7206 45.9754ZM46.0257 26.3953C35.2116 26.3953 26.4456 35.1613 26.4456 45.9754C26.4456 56.7895 35.2116 65.5555 46.0257 65.5555C56.8399 65.5555 65.6059 56.7895 65.6059 45.9754C65.6059 35.1613 56.8399 26.3953 46.0257 26.3953Z" fill="#989898"/>
<path d="M41.3775 3.70713L42.6885 4.05215L42.6885 4.05214L41.3775 3.70713ZM50.3211 3.70729L51.6322 3.36286L51.6322 3.36285L50.3211 3.70729ZM52.9007 13.5274L51.5895 13.8718C51.6975 14.2829 51.992 14.6195 52.3851 14.7811L52.9007 13.5274ZM63.9455 18.0695L63.4299 19.3233C63.9003 19.5168 64.4395 19.4306 64.8262 19.1001L63.9455 18.0695ZM71.0958 11.959L70.2151 10.9284L70.2151 10.9284L71.0958 11.959ZM71.5877 11.9783L72.5462 11.0197L72.5462 11.0196L71.5877 11.9783ZM80.0228 20.4134L79.0642 21.372L80.0228 20.4134ZM80.0433 20.9038L81.0785 21.7791V21.7791L80.0433 20.9038ZM73.9637 28.094L72.9285 27.2187C72.601 27.6061 72.5171 28.144 72.7112 28.6127L73.9637 28.094ZM78.4394 38.9012L77.1869 39.4199C77.3505 39.815 77.6909 40.1097 78.1053 40.2151L78.4394 38.9012ZM88.291 41.4064L87.9569 42.7203L87.957 42.7203L88.291 41.4064ZM88.5642 41.7578L89.9199 41.7578V41.7578L88.5642 41.7578ZM88.5638 50.0968L87.2081 50.0967V50.0967L88.5638 50.0968ZM88.2926 50.4476L87.9512 49.1356L87.9512 49.1356L88.2926 50.4476ZM78.404 53.0204L78.0626 51.7085C77.6514 51.8155 77.3141 52.1091 77.1515 52.5018L78.404 53.0204ZM73.9267 63.8319L72.6742 63.3132C72.4799 63.7825 72.5642 64.3211 72.8927 64.7086L73.9267 63.8319ZM80.043 71.0465L79.0089 71.9231L79.009 71.9232L80.043 71.0465ZM71.5877 79.9724L70.6291 79.0138L70.629 79.0139L71.5877 79.9724ZM71.0893 79.986L70.0801 79.0808C69.84 79.3485 69.7161 79.7006 69.7356 80.0596C69.7552 80.4186 69.9165 80.7551 70.1842 80.9952L71.0893 79.986ZM71.3313 79.7161L72.3405 80.6212C72.8404 80.0639 72.7939 79.2069 72.2366 78.707C71.6793 78.2071 70.8223 78.2535 70.3223 78.8108L71.3313 79.7161ZM71.0892 79.9859L70.1752 80.987C70.4422 81.2308 70.7955 81.3579 71.1567 81.3399C71.5178 81.3219 71.8568 81.1604 72.0983 80.8913L71.0892 79.9859ZM71.0891 79.9858L72.0032 78.9846L71.9936 78.976L71.0891 79.9858ZM71.0883 79.9851L70.1833 80.9944L70.1838 80.9948L71.0883 79.9851ZM71.0854 79.9825L71.9904 78.9731L71.9901 78.9729L71.0854 79.9825ZM71.0736 79.9719L71.9784 78.9623L71.9779 78.9619L71.0736 79.9719ZM71.0274 79.9306L71.9317 78.9205L71.9307 78.9197L71.0274 79.9306ZM70.8502 79.7721L71.7534 78.7613L71.7529 78.7608L70.8502 79.7721ZM70.2029 79.1963L71.1026 78.1822L71.1026 78.1822L70.2029 79.1963ZM68.1124 77.3585L69.0025 76.336L69.0025 76.336L68.1124 77.3585ZM63.9229 73.8678L64.7302 72.7788C64.3476 72.4951 63.8442 72.4331 63.4042 72.6153L63.9229 73.8678ZM53.0996 78.3501L52.5809 77.0976C52.1855 77.2613 51.8906 77.6023 51.7855 78.0172L53.0996 78.3501ZM50.5948 88.2403L51.9089 88.5731V88.5731L50.5948 88.2403ZM41.4567 88.2401L40.1423 88.572L40.1423 88.572L41.4567 88.2401ZM38.9582 78.3467L40.2726 78.0148C40.1674 77.5984 39.8711 77.2564 39.4739 77.093L38.9582 78.3467ZM28.3363 73.977L28.852 72.7233C28.3921 72.5341 27.8654 72.6119 27.4799 72.9261L28.3363 73.977ZM20.9492 79.9971L21.8056 81.048L21.8056 81.048L20.9492 79.9971ZM20.4639 79.9724L21.4225 79.0138L21.4225 79.0138L20.4639 79.9724ZM12.0287 71.5372L12.9873 70.5786L12.9872 70.5786L12.0287 71.5372ZM12.0144 71.0397L13.0263 71.9418L13.0263 71.9418L12.0144 71.0397ZM18.2548 64.0395L19.2667 64.9416C19.6149 64.551 19.7072 63.995 19.504 63.5129L18.2548 64.0395ZM13.7112 53.2608L14.9604 52.7342C14.7987 52.3507 14.4697 52.0627 14.0682 51.953L13.7112 53.2608ZM3.75434 50.5426L4.11136 49.2348L4.11135 49.2348L3.75434 50.5426ZM3.76742 41.4047L4.0755 42.7249L4.07552 42.7249L3.76742 41.4047ZM13.591 39.1121L13.8991 40.4323C14.3276 40.3323 14.6809 40.0305 14.8467 39.6228L13.591 39.1121ZM17.9981 28.2765L19.2539 28.7873C19.4403 28.329 19.3622 27.8056 19.0503 27.4217L17.9981 28.2765ZM12.0036 20.8983L13.0558 20.0435L13.0558 20.0435L12.0036 20.8983ZM12.0287 20.4134L11.0701 19.4548L11.0701 19.4549L12.0287 20.4134ZM20.4639 11.9783L19.5053 11.0197L19.5053 11.0197L20.4639 11.9783ZM20.9611 11.9637L20.0601 12.9767L20.0601 12.9767L20.9611 11.9637ZM27.9787 18.2054L27.0777 19.2183C27.4682 19.5657 28.0237 19.6576 28.5053 19.4546L27.9787 18.2054ZM38.7578 13.6616L39.2843 14.9108C39.6719 14.7475 39.9617 14.4134 40.0688 14.0066L38.7578 13.6616ZM79.2741 71.2607L80.2327 72.2193C80.7316 71.7204 80.7644 70.9222 80.3082 70.384L79.2741 71.2607ZM71.3174 79.2174L70.4148 80.2289C70.9511 80.7075 71.7677 80.6842 72.276 80.176L71.3174 79.2174ZM73.2307 64.132L72.1966 65.0086L72.1966 65.0086L73.2307 64.132ZM73.1723 63.7589L74.4248 64.2776L74.4248 64.2776L73.1723 63.7589ZM77.8032 52.5764L76.5507 52.0576L76.5507 52.0577L77.8032 52.5764ZM78.0468 52.3642L77.7055 51.0523L77.7055 51.0523L78.0468 52.3642ZM87.8388 49.8165L88.1802 51.1285C88.7775 50.9731 89.1944 50.4338 89.1945 49.8166L87.8388 49.8165ZM87.8392 42.0396L89.1948 42.0397C89.1949 41.4196 88.7742 40.8786 88.1733 40.7258L87.8392 42.0396ZM78.0846 39.5591L78.4187 38.2453L78.4187 38.2452L78.0846 39.5591ZM77.839 39.3465L79.0915 38.8278V38.8278L77.839 39.3465ZM73.2094 28.1673L74.4619 27.6486L74.4619 27.6486L73.2094 28.1673ZM73.2675 27.7946L72.2323 26.9193L72.2323 26.9193L73.2675 27.7946ZM79.2744 20.6903L80.3096 21.5656C80.7647 21.0274 80.7314 20.2302 80.233 19.7317L79.2744 20.6903ZM71.312 12.7279L72.2706 11.7693C71.7703 11.269 70.9692 11.2376 70.4313 11.6973L71.312 12.7279ZM64.248 18.7646L63.3673 17.734L63.3673 17.734L64.248 18.7646ZM63.8747 18.8243L63.359 20.0781L63.3591 20.0781L63.8747 18.8243ZM52.458 14.1292L52.9737 12.8755L52.9737 12.8755L52.458 14.1292ZM52.2453 13.8861L53.5565 13.5417V13.5417L52.2453 13.8861ZM49.6909 4.16189L51.0021 3.81746C50.8455 3.22162 50.307 2.80623 49.6909 2.80623V4.16189ZM42.0075 4.16189V2.80623C41.3916 2.80623 40.8532 3.22132 40.6965 3.81687L42.0075 4.16189ZM39.4135 14.0186L40.7245 14.3637V14.3637L39.4135 14.0186ZM39.2037 14.2604L39.7303 15.5096L39.7303 15.5096L39.2037 14.2604ZM28.0495 18.9623L27.5229 17.7131L27.5229 17.7131L28.0495 18.9623ZM27.6678 18.8991L26.7668 19.9121V19.9121L27.6678 18.8991ZM20.7347 12.7327L21.6357 11.7197C21.0992 11.2426 20.2838 11.2664 19.7762 11.7741L20.7347 12.7327ZM12.7725 20.6949L11.8139 19.7363C11.3227 20.2275 11.2823 21.0106 11.7203 21.5498L12.7725 20.6949ZM18.6961 27.9858L19.7482 27.131V27.131L18.6961 27.9858ZM18.7505 28.351L20.0063 28.8617L20.0063 28.8617L18.7505 28.351ZM14.1918 39.559L12.9361 39.0483L12.9361 39.0483L14.1918 39.559ZM13.9384 39.7755L14.2465 41.0957L14.2466 41.0956L13.9384 39.7755ZM4.2123 42.0454L3.9042 40.7252C3.29067 40.8684 2.85665 41.4154 2.85665 42.0454H4.2123ZM4.2123 49.9161H2.85665C2.85665 50.5273 3.26565 51.063 3.85528 51.2239L4.2123 49.9161ZM14.0722 52.6079L13.7152 53.9157L13.7152 53.9157L14.0722 52.6079ZM14.3108 52.8168L13.0615 53.3433L13.0615 53.3434L14.3108 52.8168ZM19.0118 63.9689L17.7626 64.4955L19.0118 63.9689ZM18.9484 64.351L19.9603 65.2531L19.9603 65.253L18.9484 64.351ZM12.7834 71.2666L11.7714 70.3645C11.2933 70.9009 11.3167 71.7171 11.8248 72.2252L12.7834 71.2666ZM20.745 79.2283L19.7864 80.1868C20.2782 80.6786 21.0623 80.7185 21.6014 80.2791L20.745 79.2283ZM28.0456 73.2787L28.902 74.3296L28.902 74.3295L28.0456 73.2787ZM28.4125 73.2244L27.8967 74.4781H27.8967L28.4125 73.2244ZM39.4029 77.7457L39.9186 76.492H39.9186L39.4029 77.7457ZM39.6164 77.9922L40.9308 77.6602V77.6602L39.6164 77.9922ZM42.0905 87.7888L40.7761 88.1207C40.9281 88.7227 41.4696 89.1444 42.0905 89.1444V87.7888ZM49.9612 87.7888V89.1444C50.5817 89.1444 51.123 88.7232 51.2754 88.1216L49.9612 87.7888ZM52.4415 77.9957L53.7556 78.3286L53.7556 78.3285L52.4415 77.9957ZM52.6542 77.7498L52.1355 76.4973L52.1354 76.4973L52.6542 77.7498ZM63.8333 73.1202L64.352 74.3727L64.3521 74.3726L63.8333 73.1202ZM64.1828 73.1602L64.9712 72.0573L64.9711 72.0573L64.1828 73.1602ZM68.5884 76.8116L69.4785 75.7891L68.5884 76.8116ZM70.684 78.6539L69.7844 79.6681L69.7844 79.6681L70.684 78.6539ZM41.728 2.08123C40.9475 2.08123 40.2651 2.60731 40.0664 3.36212L42.6885 4.05214C42.5737 4.48845 42.1792 4.79254 41.728 4.79254V2.08123ZM49.9705 2.08123H41.728V4.79254H49.9705V2.08123ZM51.6322 3.36285C51.4339 2.6077 50.7513 2.08123 49.9705 2.08123V4.79254C49.5191 4.79254 49.1246 4.48822 49.0099 4.05173L51.6322 3.36285ZM54.2119 13.1829L51.6322 3.36286L49.0099 4.05172L51.5895 13.8718L54.2119 13.1829ZM64.4611 16.8158L53.4163 12.2736L52.3851 14.7811L63.4299 19.3233L64.4611 16.8158ZM70.2151 10.9284L63.0648 17.0389L64.8262 19.1001L71.9765 12.9896L70.2151 10.9284ZM72.5462 11.0196C71.9121 10.3855 70.8969 10.3458 70.2151 10.9284L71.9765 12.9896C71.5825 13.3264 70.9956 13.3034 70.6291 12.9369L72.5462 11.0196ZM80.9814 19.4548L72.5462 11.0197L70.6291 12.9368L79.0642 21.372L80.9814 19.4548ZM81.0785 21.7791C81.6553 21.0969 81.6131 20.0866 80.9814 19.4548L79.0642 21.372C78.6991 21.0069 78.6747 20.4228 79.0081 20.0285L81.0785 21.7791ZM74.9989 28.9693L81.0785 21.7791L79.0081 20.0285L72.9285 27.2187L74.9989 28.9693ZM79.6919 38.3825L75.2162 27.5753L72.7112 28.6127L77.1869 39.4199L79.6919 38.3825ZM88.6251 40.0926L78.7735 37.5874L78.1053 40.2151L87.9569 42.7203L88.6251 40.0926ZM89.9199 41.7578C89.9199 40.972 89.3868 40.2862 88.6251 40.0926L87.957 42.7203C87.5167 42.6083 87.2085 42.2119 87.2085 41.7577L89.9199 41.7578ZM89.9194 50.0969L89.9199 41.7578L87.2085 41.7577L87.2081 50.0967L89.9194 50.0969ZM88.6339 51.7596C89.391 51.5626 89.9194 50.8791 89.9194 50.0969L87.2081 50.0967C87.2082 49.6446 87.5136 49.2495 87.9512 49.1356L88.6339 51.7596ZM78.7453 54.3324L88.6339 51.7596L87.9512 49.1356L78.0626 51.7085L78.7453 54.3324ZM75.1792 64.3506L79.6565 53.5391L77.1515 52.5018L72.6742 63.3132L75.1792 64.3506ZM81.0771 70.1699L74.9608 62.9553L72.8927 64.7086L79.0089 71.9231L81.0771 70.1699ZM80.9814 72.4958C81.6137 71.8635 81.6553 70.8519 81.0771 70.1698L79.009 71.9232C78.6747 71.5289 78.6988 70.9441 79.0642 70.5786L80.9814 72.4958ZM72.5462 80.931L80.9814 72.4958L79.0642 70.5786L70.6291 79.0138L72.5462 80.931ZM70.1842 80.9952C70.8636 81.6045 71.9009 81.5764 72.5463 80.931L70.629 79.0139C71.0021 78.6408 71.6017 78.6245 71.9944 78.9767L70.1842 80.9952ZM70.3221 78.811L70.0801 79.0808L72.0985 80.8911L72.3405 80.6212L70.3221 78.811ZM72.0983 80.8913L72.3404 80.6214L70.3223 78.8108L70.0802 79.0806L72.0983 80.8913ZM70.175 80.9869L70.1752 80.987L72.0033 78.9848L72.0031 78.9846L70.175 80.9869ZM70.1838 80.9948L70.1845 80.9955L71.9936 78.976L71.9929 78.9754L70.1838 80.9948ZM70.1804 80.9918L70.1833 80.9944L71.9933 78.9758L71.9904 78.9731L70.1804 80.9918ZM70.1689 80.9815L70.1806 80.992L71.9901 78.9729L71.9784 78.9623L70.1689 80.9815ZM70.1232 80.9406L70.1694 80.9819L71.9779 78.9619L71.9317 78.9205L70.1232 80.9406ZM69.9469 80.783L70.1241 80.9414L71.9307 78.9197L71.7534 78.7613L69.9469 80.783ZM69.3032 80.2104C69.574 80.4506 69.7946 80.6472 69.9474 80.7835L71.7529 78.7608C71.5983 78.6228 71.3756 78.4244 71.1026 78.1822L69.3032 80.2104ZM67.2223 78.381C68.0206 79.0758 68.7616 79.7299 69.3033 80.2104L71.1026 78.1822C70.5566 77.6979 69.809 77.038 69.0025 76.336L67.2223 78.381ZM63.1155 74.9568C64.0212 75.6283 65.6923 77.0491 67.2224 78.381L69.0025 76.336C67.4903 75.0196 65.737 73.5251 64.7302 72.7788L63.1155 74.9568ZM53.6183 79.6026L64.4416 75.1203L63.4042 72.6153L52.5809 77.0976L53.6183 79.6026ZM51.9089 88.5731L54.4138 78.6829L51.7855 78.0172L49.2806 87.9075L51.9089 88.5731ZM50.2434 89.8694C51.0298 89.8694 51.7158 89.3355 51.9089 88.5731L49.2806 87.9074C49.3922 87.4668 49.7887 87.1581 50.2434 87.1581V89.8694ZM41.8082 89.8694H50.2434V87.1581H41.8082V89.8694ZM40.1423 88.572C40.335 89.3349 41.0213 89.8694 41.8082 89.8694V87.1581C42.263 87.1581 42.6597 87.4671 42.7711 87.9081L40.1423 88.572ZM37.6438 78.6787L40.1423 88.572L42.7711 87.9081L40.2726 78.0148L37.6438 78.6787ZM27.8205 75.2307L38.4424 79.6004L39.4739 77.093L28.852 72.7233L27.8205 75.2307ZM21.8056 81.048L29.1927 75.0279L27.4799 72.9261L20.0928 78.9462L21.8056 81.048ZM19.5053 80.931C20.1285 81.5543 21.1223 81.6048 21.8056 81.048L20.0928 78.9462C20.4877 78.6244 21.0622 78.6535 21.4225 79.0138L19.5053 80.931ZM11.0701 72.4958L19.5053 80.931L21.4225 79.0138L12.9873 70.5786L11.0701 72.4958ZM11.0025 70.1376C10.3965 70.8174 10.4261 71.8519 11.0701 72.4958L12.9872 70.5786C13.3595 70.9509 13.3766 71.5489 13.0263 71.9418L11.0025 70.1376ZM17.2429 63.1374L11.0025 70.1376L13.0263 71.9418L19.2667 64.9416L17.2429 63.1374ZM12.462 53.7874L17.0056 64.5661L19.504 63.5129L14.9604 52.7342L12.462 53.7874ZM3.39731 51.8504L13.3541 54.5686L14.0682 51.953L4.11136 49.2348L3.39731 51.8504ZM2.13165 50.1929C2.13165 50.9676 2.65001 51.6464 3.39732 51.8504L4.11135 49.2348C4.54333 49.3528 4.84296 49.7452 4.84296 50.1929H2.13165ZM2.13165 41.7577V50.1929H4.84296V41.7577H2.13165ZM3.45934 40.0845C2.68172 40.266 2.13165 40.9593 2.13165 41.7577H4.84296C4.84296 42.2193 4.525 42.62 4.0755 42.7249L3.45934 40.0845ZM13.2828 37.7919L3.45931 40.0846L4.07552 42.7249L13.8991 40.4323L13.2828 37.7919ZM16.7424 27.7658L12.3352 38.6013L14.8467 39.6228L19.2539 28.7873L16.7424 27.7658ZM10.9515 21.7532L16.946 29.1314L19.0503 27.4217L13.0558 20.0435L10.9515 21.7532ZM11.0701 19.4549C10.4475 20.0774 10.3963 21.0699 10.9515 21.7532L13.0558 20.0435C13.3767 20.4385 13.3471 21.0122 12.9873 21.372L11.0701 19.4549ZM19.5053 11.0197L11.0701 19.4548L12.9873 21.372L21.4225 12.9368L19.5053 11.0197ZM21.8621 10.9508C21.1822 10.346 20.1487 10.3763 19.5053 11.0197L21.4224 12.9369C21.0505 13.3088 20.4532 13.3262 20.0601 12.9767L21.8621 10.9508ZM28.8796 17.1924L21.8621 10.9508L20.0601 12.9767L27.0777 19.2183L28.8796 17.1924ZM38.2312 12.4124L27.4521 16.9562L28.5053 19.4546L39.2843 14.9108L38.2312 12.4124ZM40.0664 3.36211L37.4467 13.3166L40.0688 14.0066L42.6885 4.05215L40.0664 3.36211ZM78.3155 70.3021L70.3588 78.2588L72.276 80.176L80.2327 72.2193L78.3155 70.3021ZM72.1966 65.0086L78.24 72.1373L80.3082 70.384L74.2647 63.2554L72.1966 65.0086ZM71.9198 63.2402C71.6734 63.835 71.7803 64.5176 72.1966 65.0086L74.2647 63.2554C74.5054 63.5392 74.5672 63.9338 74.4248 64.2776L71.9198 63.2402ZM76.5507 52.0577L71.9198 63.2402L74.4248 64.2776L79.0557 53.095L76.5507 52.0577ZM77.7055 51.0523C77.1843 51.1879 76.7568 51.56 76.5507 52.0576L79.0557 53.0951C78.9365 53.3827 78.6894 53.5978 78.3882 53.6762L77.7055 51.0523ZM87.4974 48.5045L77.7055 51.0523L78.3882 53.6762L88.1802 51.1285L87.4974 48.5045ZM86.4835 42.0395L86.4831 49.8164L89.1945 49.8166L89.1948 42.0397L86.4835 42.0395ZM77.7505 40.8729L87.5051 43.3534L88.1733 40.7258L78.4187 38.2453L77.7505 40.8729ZM76.5865 39.8652C76.7939 40.3659 77.2253 40.7394 77.7506 40.873L78.4187 38.2452C78.7223 38.3225 78.9717 38.5384 79.0915 38.8278L76.5865 39.8652ZM71.9569 28.686L76.5865 39.8652L79.0915 38.8278L74.4619 27.6486L71.9569 28.686ZM72.2323 26.9193C71.8171 27.4103 71.7108 28.092 71.9569 28.6861L74.4619 27.6486C74.6041 27.992 74.5427 28.3861 74.3027 28.6699L72.2323 26.9193ZM78.2392 19.815L72.2323 26.9193L74.3027 28.6699L80.3096 21.5656L78.2392 19.815ZM70.3534 13.6865L78.3158 21.6489L80.233 19.7317L72.2706 11.7693L70.3534 13.6865ZM65.1288 19.7952L72.1927 13.7585L70.4313 11.6973L63.3673 17.734L65.1288 19.7952ZM63.3591 20.0781C63.9553 20.3233 64.6386 20.2141 65.1288 19.7952L63.3673 17.734C63.6506 17.4919 64.0456 17.4288 64.3903 17.5705L63.3591 20.0781ZM51.9424 15.383L63.359 20.0781L64.3903 17.5705L52.9737 12.8755L51.9424 15.383ZM50.9341 14.2305C51.071 14.7515 51.4443 15.1781 51.9424 15.383L52.9737 12.8755C53.2616 12.9939 53.4774 13.2405 53.5565 13.5417L50.9341 14.2305ZM48.3797 4.50632L50.9341 14.2305L53.5565 13.5417L51.0021 3.81746L48.3797 4.50632ZM42.0075 5.51754H49.6909V2.80623H42.0075V5.51754ZM40.7245 14.3637L43.3185 4.5069L40.6965 3.81687L38.1025 13.6736L40.7245 14.3637ZM39.7303 15.5096C40.2216 15.3025 40.5888 14.8792 40.7245 14.3637L38.1025 13.6736C38.1809 13.3756 38.3932 13.1309 38.6772 13.0112L39.7303 15.5096ZM28.5761 20.2115L39.7303 15.5096L38.6772 13.0112L27.5229 17.7131L28.5761 20.2115ZM26.7668 19.9121C27.2618 20.3523 27.9657 20.4688 28.5761 20.2115L27.5229 17.7131C27.8757 17.5644 28.2826 17.6317 28.5687 17.8862L26.7668 19.9121ZM19.8338 13.7456L26.7668 19.9121L28.5687 17.8862L21.6357 11.7197L19.8338 13.7456ZM13.7311 21.6535L21.6933 13.6913L19.7762 11.7741L11.8139 19.7363L13.7311 21.6535ZM19.7482 27.131L13.8247 19.8401L11.7203 21.5498L17.6439 28.8407L19.7482 27.131ZM20.0063 28.8617C20.2425 28.281 20.1436 27.6176 19.7482 27.131L17.6439 28.8407C17.4154 28.5594 17.3582 28.1759 17.4947 27.8402L20.0063 28.8617ZM15.4476 40.0698L20.0063 28.8617L17.4948 27.8402L12.9361 39.0483L15.4476 40.0698ZM14.2466 41.0956C14.7897 40.9689 15.2375 40.5864 15.4476 40.0698L12.9361 39.0483C13.0575 38.7496 13.3164 38.5286 13.6303 38.4553L14.2466 41.0956ZM4.52041 43.3656L14.2465 41.0957L13.6303 38.4553L3.9042 40.7252L4.52041 43.3656ZM5.56796 49.9161V42.0454H2.85665V49.9161H5.56796ZM14.4292 51.3001L4.56933 48.6083L3.85528 51.2239L13.7152 53.9157L14.4292 51.3001ZM15.56 52.2902C15.355 51.804 14.9381 51.439 14.4292 51.3001L13.7152 53.9157C13.421 53.8354 13.18 53.6244 13.0615 53.3433L15.56 52.2902ZM20.2611 63.4423L15.56 52.2902L13.0615 53.3434L17.7626 64.4955L20.2611 63.4423ZM19.9603 65.253C20.4016 64.7581 20.5186 64.0534 20.2611 63.4423L17.7626 64.4955C17.6138 64.1423 17.6814 63.735 17.9365 63.4489L19.9603 65.253ZM13.7953 72.1687L19.9603 65.2531L17.9365 63.4489L11.7714 70.3645L13.7953 72.1687ZM21.7036 78.2697L13.742 70.308L11.8248 72.2252L19.7864 80.1868L21.7036 78.2697ZM27.1892 72.2278L19.8886 78.1774L21.6014 80.2791L28.902 74.3296L27.1892 72.2278ZM28.9282 71.9707C28.3453 71.7309 27.6778 71.8295 27.1891 72.2278L28.902 74.3295C28.6195 74.5598 28.2337 74.6168 27.8967 74.4781L28.9282 71.9707ZM39.9186 76.492L28.9282 71.9707L27.8967 74.4781L38.8871 78.9994L39.9186 76.492ZM40.9308 77.6602C40.7975 77.1325 40.422 76.6991 39.9186 76.492L38.8871 78.9994C38.5961 78.8797 38.3791 78.6292 38.302 78.3241L40.9308 77.6602ZM43.4049 87.4568L40.9308 77.6602L38.302 78.3241L40.7761 88.1207L43.4049 87.4568ZM49.9612 86.4331H42.0905V89.1444H49.9612V86.4331ZM51.1273 77.6629L48.647 87.456L51.2754 88.1216L53.7556 78.3286L51.1273 77.6629ZM52.1354 76.4973C51.6343 76.7049 51.2605 77.137 51.1273 77.6629L53.7556 78.3285C53.6786 78.6326 53.4626 78.8823 53.173 79.0023L52.1354 76.4973ZM63.3146 71.8677L52.1355 76.4973L53.1729 79.0023L64.352 74.3727L63.3146 71.8677ZM64.9711 72.0573C64.4887 71.7125 63.8626 71.6407 63.3146 71.8677L64.3521 74.3726C64.0353 74.5038 63.6734 74.4624 63.3945 74.2631L64.9711 72.0573ZM69.4785 75.7891C67.8917 74.4078 65.984 72.7813 64.9712 72.0573L63.3945 74.263C64.2792 74.8955 66.0799 76.4253 67.6984 77.8342L69.4785 75.7891ZM71.5837 77.6398C71.0366 77.1545 70.2872 76.493 69.4785 75.7891L67.6984 77.8342C68.4988 78.5309 69.2416 79.1865 69.7844 79.6681L71.5837 77.6398ZM72.22 78.2059C72.0657 78.0683 71.8483 77.8745 71.5837 77.6398L69.7844 79.6681C70.0467 79.9008 70.2622 80.0927 70.4148 80.2289L72.22 78.2059ZM46.0257 24.3146C34.0625 24.3146 24.365 34.0122 24.365 45.9754H27.0763C27.0763 35.5096 35.5599 27.0259 46.0257 27.0259V24.3146ZM67.6865 45.9754C67.6865 34.0122 57.989 24.3146 46.0257 24.3146V27.0259C56.4916 27.0259 64.9752 35.5096 64.9752 45.9754H67.6865ZM46.0257 67.6362C57.989 67.6362 67.6865 57.9386 67.6865 45.9754H64.9752C64.9752 56.4412 56.4916 64.9249 46.0257 64.9249V67.6362ZM24.365 45.9754C24.365 57.9386 34.0625 67.6362 46.0257 67.6362V64.9249C35.5599 64.9249 27.0763 56.4412 27.0763 45.9754H24.365ZM27.8013 45.9754C27.8013 35.91 35.9603 27.7509 46.0257 27.7509V25.0396C34.4629 25.0396 25.09 34.4126 25.09 45.9754H27.8013ZM46.0257 64.1999C35.9603 64.1999 27.8013 56.0408 27.8013 45.9754H25.09C25.09 57.5382 34.4629 66.9112 46.0257 66.9112V64.1999ZM64.2502 45.9754C64.2502 56.0408 56.0911 64.1999 46.0257 64.1999V66.9112C57.5886 66.9112 66.9615 57.5382 66.9615 45.9754H64.2502ZM46.0257 27.7509C56.0911 27.7509 64.2502 35.91 64.2502 45.9754H66.9615C66.9615 34.4126 57.5886 25.0396 46.0257 25.0396V27.7509Z" fill="#A1A6B2"/>
</svg>
